#!OML:ASF Y:\EmotionMaleHayes\Project 1\Capture day 1\Session 1\Male1.ASF
:FULLY-SPECIFIED
:DEGREES
2006
root 42.4213 16.8783 -16.8627 886.271 -72.7113 908.714
lowerback -0.213319 3.30048 9.18309
upperback 0.876169 4.22231 2.27975
thorax 1.52613 2.15378 -2.67949
lowerneck -27.112 4.33531 6.30819
upperneck 28.2866 4.91642 -4.77922
head 14.5937 2.00139 -2.04984
rclavicle -5.31252e-014 1.11319e-014
rhumerus 47.7294 15.9973 -39.5297
rradius 38.0293
rwrist -1.36179
rhand -6.99115 -29.1739
rfingers 7.12502
rthumb 18.8793 -58.2777
lclavicle -5.31252e-014 1.11319e-014
lhumerus 36.4384 -7.78567 29.6474
lradius 36.6732
lwrist 4.72302
lhand -17.6275 -25.1925
lfingers 7.12502
lthumb 8.62979 4.61109
rfemur 26.2822 -4.00587 13.9137
rtibia -0.328064
rfoot -24.3215 -15.987
rtoes 0.756486
lfemur -4.09669 -5.37446 -0.565455
ltibia 38.5361
lfoot 0.919514 -24.9857
ltoes 5.57916
2007
root 42.3663 16.8672 -16.8497 885.81 -72.8088 909.257
lowerback 0.0172937 3.33157 9.43398
upperback 0.686115 4.30111 2.29628
thorax 1.22546 2.17708 -2.81915
lowerneck -26.9352 4.25543 6.15981
upperneck 28.1468 4.86554 -4.75517
head 14.4858 1.96987 -2.0244
rclavicle 4.52235e-015 2.06736e-014
rhumerus 47.6752 15.7662 -40.5394
rradius 37.8624
rwrist -0.736217
rhand -7.41252 -29.5045
rfingers 7.12502
rthumb 18.474 -58.6473
lclavicle 4.52235e-015 2.06736e-014
lhumerus 36.2808 -7.99043 29.4741
lradius 36.8761
lwrist 4.98394
lhand -17.6116 -25.0059
lfingers 7.12502
lthumb 8.64515 4.79711
rfemur 26.4894 -3.7364 14.1883
rtibia -0.54765
rfoot -24.4503 -16.4453
rtoes 0.617239
lfemur -4.53159 -4.5025 -0.262093
ltibia 39.4709
lfoot -1.94927 -24.3079
ltoes -1.05898
2008
root 42.3076 16.8557 -16.8344 885.059 -72.8243 910.156
lowerback -0.0581265 3.4763 9.81967
upperback 0.443751 4.49501 2.34924
thorax 1.06461 2.25994 -2.97327
lowerneck -26.2638 4.10333 6.10552
upperneck 27.8545 4.68033 -4.70905
head 14.2025 1.90084 -2.03418
rclavicle -2.93207e-014 -7.39479e-014
rhumerus 47.3089 15.4486 -41.5791
rradius 37.6606
rwrist 0.302553
rhand -7.36071 -29.4549
rfingers 7.12502
rthumb 18.5239 -58.593
lclavicle -2.93207e-014 -7.39479e-014
lhumerus 36.26 -8.34272 29.6656
lradius 36.9615
lwrist 4.89953
lhand -17.6169 -24.9759
lfingers 7.12502
lthumb 8.64005 4.82729
rfemur 26.6581 -3.62327 14.4559
rtibia -0.752937
rfoot -24.5293 -16.5955
rtoes 0.812274
lfemur -4.80572 -3.74809 0.160581
ltibia 39.8432
lfoot -4.32144 -22.817
ltoes -7.63672
2009
root 42.2505 16.8427 -16.82 884.947 -73.0196 910.385
lowerback -0.0925222 3.71538 10.212
upperback -0.0865111 4.85683 2.01254
thorax 0.636875 2.41149 -3.54244
lowerneck -24.6997 3.92361 6.6039
upperneck 27.4254 4.23464 -4.57022
head 13.6763 1.80033 -2.15352
rclavicle -2.77305e-014 -5.1684e-014
rhumerus 46.0637 15.3104 -42.7367
rradius 37.5448
rwrist 0.8018
rhand -7.55506 -29.6747
rfingers 7.12502
rthumb 18.3369 -58.8304
lclavicle -2.77305e-014 -5.1684e-014
lhumerus 36.5304 -9.56597 29.3097
lradius 37.1428
lwrist 5.03872
lhand -17.6787 -24.9796
lfingers 7.12502
lthumb 8.58042 4.82605
rfemur 26.8817 -3.4709 14.4955
rtibia -0.903782
rfoot -24.9353 -16.6083
rtoes 2.12312
lfemur -5.24301 -3.00055 0.318899
ltibia 40.4312
lfoot -7.19562 -20.8092
ltoes -18.2535
2010
root 42.1928 16.8311 -16.8051 885.01 -73.2057 910.325
lowerback -0.0819269 3.66051 10.0635
upperback 0.0696706 4.77252 2.09572
thorax 0.763384 2.37898 -3.37254
lowerneck -25.3539 3.99257 6.52719
upperneck 27.4343 4.36175 -4.64986
head 13.8231 1.83191 -2.1429
rclavicle -4.52235e-014 1.66979e-014
rhumerus 46.6214 15.2032 -42.7021
rradius 37.5179
rwrist 0.774408
rhand -7.90831 -29.9478
rfingers 7.12502
rthumb 17.9971 -59.1351
lclavicle -4.52235e-014 1.66979e-014
lhumerus 36.4455 -9.3016 29.1136
lradius 37.2722
lwrist 5.33763
lhand -17.8932 -24.9448
lfingers 7.12502
lthumb 8.37342 4.8692
rfemur 27.1359 -3.26046 14.4695
rtibia -0.895096
rfoot -25.4052 -16.6621
rtoes 3.11654
lfemur -5.56974 -2.21586 0.399066
ltibia 40.7891
lfoot -9.11889 -18.2631
ltoes -21.8785
